<svg width="356" height="224" viewBox="0 0 356 224" fill="none" xmlns="http://www.w3.org/2000/svg">
<path d="M145.126 22.3728C146.443 23.7436 147.189 24.8719 147.915 26.6136C147.5 26.4868 147.085 26.36 146.658 26.2293C145.426 25.8556 144.192 25.4862 142.957 25.1201C141.688 24.7433 140.421 24.3592 139.158 23.9645C116.551 17.2408 90.0921 21.2509 69.4084 32.0863C59.9534 37.2492 49.021 44.3245 45.6316 55.1572C44.7029 59.9809 44.6677 64.4004 47.1388 68.738C58.9098 85.8744 88.6839 89.2301 107.535 94.0301C119.422 97.0648 131.035 100.651 142.333 105.455C139.805 113.253 137.257 120.968 133.96 128.48C133.463 129.659 132.967 130.839 132.472 132.02C131.922 133.326 131.371 134.631 130.821 135.936C130.436 136.857 130.436 136.857 130.043 137.797C128.332 141.82 126.393 145.633 124.192 149.411C123.559 148.835 122.926 148.26 122.274 147.667C109.75 137.047 94.1995 133.053 78.5668 129.221C76.9204 128.817 75.2753 128.409 73.6304 127.999C68.3798 126.695 63.1238 125.436 57.8438 124.256C39.0228 120.008 19.8752 111.163 8.81095 94.7033C1.32981 82.8088 -0.675486 69.3769 2.11523 55.6057C4.44237 46.0141 9.10736 37.0033 15.3493 29.4045C15.7612 28.8792 16.1731 28.354 16.5975 27.8128C29.8899 11.7488 52.4404 2.47273 72.7361 0.362199C100.249 -1.53768 124.229 3.78246 145.126 22.3728Z" fill="#013E70"/>
<path d="M207.303 197.125C206.03 195.714 205.32 194.562 204.649 192.799C205.06 192.939 205.47 193.078 205.893 193.222C207.113 193.634 208.335 194.042 209.557 194.447C210.814 194.863 212.068 195.287 213.319 195.721C235.704 203.149 262.275 199.969 283.288 189.786C292.9 184.921 304.049 178.192 307.775 167.47C308.854 162.678 309.028 158.262 306.694 153.849C295.465 136.353 265.81 132.067 247.119 126.679C235.332 123.274 223.837 119.326 212.695 114.171C215.466 106.456 218.254 98.8247 221.784 91.4195C222.319 90.2561 222.851 89.092 223.383 87.9275C223.974 86.6398 224.565 85.3522 225.156 84.0646C225.57 83.1564 225.57 83.1564 225.992 82.2298C227.828 78.2616 229.885 74.5115 232.203 70.8041C232.818 71.3992 233.432 71.9944 234.066 72.6076C246.251 83.6142 261.669 88.0924 277.174 92.412C278.807 92.8671 280.439 93.3272 282.07 93.788C287.277 95.2552 292.491 96.6788 297.732 98.0235C316.41 102.858 335.272 112.298 345.816 129.096C352.921 141.219 354.505 154.707 351.284 168.384C348.658 177.898 343.714 186.758 337.237 194.158C336.809 194.67 336.381 195.182 335.939 195.71C322.151 211.35 299.321 219.916 278.969 221.39C251.41 222.428 227.609 216.36 207.303 197.125Z" fill="#013E70"/>
<path d="M271.869 1.0176C269.653 2.80035 267.338 4.04983 264.805 5.33469C260.439 7.66393 256.717 10.2859 253.031 13.5764C252.509 14.0405 251.988 14.5046 251.45 14.9827C244.341 21.694 239.043 30.2748 234.193 38.6941C233.827 39.318 233.827 39.318 233.454 39.9546C223.933 56.4056 217.411 74.7389 210.689 92.4615C203.323 111.874 195.527 132.034 183.26 148.933C182.783 149.607 182.306 150.282 181.815 150.977C170.693 166.325 157.107 177.425 138.606 182.423C138.121 182.554 137.636 182.686 137.137 182.821C131.591 184.137 126.036 183.974 120.378 183.905C119.368 183.898 118.358 183.892 117.348 183.886C114.898 183.871 112.449 183.847 110 183.818C111.634 182.184 113.128 181.587 115.233 180.635C119.794 178.39 123.195 175.563 126.745 171.957C127.173 171.528 127.601 171.099 128.042 170.657C143.441 154.163 151.136 129.064 158.317 108.204C168.047 80.0291 178.946 51.0747 198.609 28.2284C199.294 27.3715 199.977 26.5141 200.659 25.6556C201.134 25.1231 201.609 24.5907 202.098 24.0421C202.559 24.0421 203.019 24.0421 203.493 24.0421C203.724 23.3514 203.954 22.6606 204.191 21.949C221.875 4.84921 247.647 -2.95592 271.869 1.0176Z" fill="#EA0000"/>
<path d="M0 150.807C3.62252 150.737 7.24465 150.687 10.8677 150.654C12.0965 150.64 13.3252 150.621 14.5538 150.596C25.4588 150.386 34.1654 151.482 42.5605 159.18C44.1799 161.159 45.4481 163.261 46.7467 165.459C47.5791 166.687 48.4224 167.908 49.2759 169.122C49.6591 169.672 50.0422 170.223 50.437 170.79C61.1829 185.609 79.6522 191.018 96.8894 193.804C120.257 197.135 145.769 193.067 165.358 179.413C161.162 193.52 149.256 204.621 136.691 211.474C130.328 214.839 123.892 217.271 116.998 219.314C116.13 219.576 116.13 219.576 115.245 219.843C106.455 222.343 97.5858 222.919 88.5039 222.892C86.958 222.889 85.413 222.906 83.8672 222.923C74.2562 222.967 64.9765 221.532 55.7734 218.703C55.1942 218.527 54.615 218.35 54.0182 218.169C48.6901 216.472 43.7839 214.184 38.8978 211.482C37.7738 210.864 36.6342 210.274 35.4934 209.687C19.7768 201.233 8.36943 186.433 2.79085 169.645C1.05766 163.396 0.438735 157.257 0 150.807Z" fill="#013E70"/>
<path d="M289.538 6.96369C300.433 6.51397 310.372 10.4543 318.596 17.4158C331.206 29.0281 338.978 45.8292 340.484 62.8952C340.492 64.5231 340.492 66.1512 340.484 67.7791C336.439 67.8486 332.394 67.899 328.348 67.9324C326.974 67.9464 325.6 67.9654 324.227 67.9897C322.242 68.0239 320.257 68.0394 318.272 68.0517C317.365 68.0733 317.365 68.0733 316.439 68.0953C311.119 68.0972 306.179 66.667 301.895 63.4157C299.646 61.1214 298.094 58.7256 296.485 55.9616C291.087 46.8294 284.605 41.6759 274.226 38.7919C269.093 37.5757 263.986 37.5879 258.746 37.6339C257.229 37.6468 255.713 37.6482 254.196 37.6481C248.459 37.618 248.459 37.618 242.805 38.4752C243.822 35.3642 245.535 33.1139 247.645 30.6696C247.985 30.2732 248.326 29.8769 248.677 29.4685C259.431 17.171 272.999 8.33375 289.538 6.96369Z" fill="#013E70"/>
</svg>
